<svg xmlns="http://www.w3.org/2000/svg" viewBox="0 0 24 24" id="add-image"><path fill="#2D98D4" d="M18 2H2C.897 2 0 2.897 0 4v11c0 1.103.897 2 2 2h16c1.103 0 2-.897 2-2V4c0-1.103-.897-2-2-2z"></path><path fill="#FFF" d="M18 2H2C.897 2 0 2.897 0 4v.25c0-1.103.897-2 2-2h16c1.103 0 2 .897 2 2V4c0-1.103-.897-2-2-2z" opacity=".2"></path><path fill="#E6E6E5" d="m20 14.505-7.5-7.487L2.56 17H18c1.103 0 2-.897 2-2v-.495z"></path><path fill="#F3F3F3" d="M6 10.018.183 15.835A2.001 2.001 0 0 0 2 17h10.982L6 10.018z"></path><path fill="#010101" d="M2 17h16c1.103 0 2-.897 2-2v-.25c0 1.103-.897 2-2 2H2c-1.103 0-2-.897-2-2V15c0 1.103.897 2 2 2z" opacity=".1"></path><circle cx="8" cy="6.018" r="1.982" fill="#FFCF51"></circle><circle cx="18.5" cy="16.5" r="5.5" fill="#68B345"></circle><path fill="#010101" d="M18.5 21.75a5.622 5.622 0 0 1-5.263-3.654 5.5 5.5 0 0 0 10.526 0A5.622 5.622 0 0 1 18.5 21.75z" opacity=".1"></path><path fill="#FFF" d="M18.5 11.25a5.622 5.622 0 0 1 5.263 3.654 5.5 5.5 0 0 0-10.526 0A5.622 5.622 0 0 1 18.5 11.25z" opacity=".2"></path><path fill="#FFF" d="M21 16h-2v-2h-1v2h-2v1h2v2h1v-2h2z"></path><linearGradient id="a" x1="17.758" x2="21.627" y1="15.758" y2="19.627" gradientUnits="userSpaceOnUse"><stop offset="0" stop-color="#010101" stop-opacity=".1"></stop><stop offset="1" stop-color="#010101" stop-opacity="0"></stop></linearGradient><path fill="url(#a)" d="m16 17 2 2v-2h-2zm3-1h2l-2-2v2zm2 0v1h-2v2h-1l2.587 2.587a5.515 5.515 0 0 0 3-3L21 16z"></path><linearGradient id="b" x1="-.49" x2="24.649" y1="4.608" y2="16.331" gradientUnits="userSpaceOnUse"><stop offset="0" stop-color="#FFF" stop-opacity=".2"></stop><stop offset="1" stop-color="#FFF" stop-opacity="0"></stop></linearGradient><path fill="url(#b)" d="M20 11.212V4c0-1.103-.897-2-2-2H2C.897 2 0 2.897 0 4v11c0 1.103.897 2 2 2h11.025A5.499 5.499 0 1 0 20 11.212z"></path></svg>