<svg xmlns="http://www.w3.org/2000/svg" viewBox="0 0 24 24" id="add-user"><circle cx="11" cy="6" r="6" fill="#2D98D4"></circle><path fill="#2D98D4" d="M19.539 15.255C17.535 14.226 14.427 13 11 13s-6.535 1.226-8.539 2.255A4.5 4.5 0 0 0 0 19.268V22h22v-2.732a4.5 4.5 0 0 0-2.461-4.013z"></path><path fill="#010101" d="M0 21.75h22V22H0z" opacity=".1"></path><path fill="#FFF" d="M11 .25c3.266 0 5.926 2.625 5.994 5.875 0-.042.006-.083.006-.125 0-3.309-2.691-6-6-6S5 2.691 5 6c0 .042.005.083.006.125C5.074 2.875 7.734.25 11 .25z" opacity=".2"></path><path fill="#010101" d="M11 11.75c-3.266 0-5.926-2.624-5.994-5.875C5.006 5.917 5 5.958 5 6c0 3.309 2.691 6 6 6s6-2.691 6-6c0-.042-.005-.083-.006-.125-.068 3.25-2.728 5.875-5.994 5.875z" opacity=".1"></path><path fill="#FFF" d="M19.539 15.255C17.535 14.226 14.427 13 11 13s-6.535 1.226-8.539 2.255A4.5 4.5 0 0 0 0 19.268v.25a4.5 4.5 0 0 1 2.461-4.013C4.465 14.476 7.573 13.25 11 13.25s6.535 1.226 8.539 2.255A4.5 4.5 0 0 1 22 19.518v-.25a4.5 4.5 0 0 0-2.461-4.013z" opacity=".2"></path><circle cx="18.5" cy="18.5" r="5.5" fill="#68B345"></circle><path fill="#010101" d="M18.5 23.75a5.622 5.622 0 0 1-5.263-3.654 5.5 5.5 0 0 0 10.526 0A5.622 5.622 0 0 1 18.5 23.75z" opacity=".1"></path><path fill="#FFF" d="M18.5 13.25a5.622 5.622 0 0 1 5.263 3.653 5.5 5.5 0 0 0-10.526 0A5.622 5.622 0 0 1 18.5 13.25z" opacity=".2"></path><path fill="#FFF" d="M21 18h-2v-2h-1v2h-2v1h2v2h1v-2h2z"></path><linearGradient id="a" x1="17.758" x2="21.627" y1="17.758" y2="21.627" gradientUnits="userSpaceOnUse"><stop offset="0" stop-color="#010101" stop-opacity=".1"></stop><stop offset="1" stop-color="#010101" stop-opacity="0"></stop></linearGradient><path fill="url(#a)" d="M16 19l2 2v-2h-2zm3-1h2l-2-2v2zm2 0v1h-2v2h-1l2.587 2.587a5.515 5.515 0 0 0 3-3L21 18z"></path><linearGradient id="b" x1="2.784" x2="24.155" y1="9.423" y2="19.389" gradientUnits="userSpaceOnUse"><stop offset="0" stop-color="#FFF" stop-opacity=".2"></stop><stop offset="1" stop-color="#FFF" stop-opacity="0"></stop></linearGradient><path fill="url(#b)" d="M11 12c3.309 0 6-2.691 6-6s-2.691-6-6-6-6 2.691-6 6 2.691 6 6 6zm7.5 1c-.996 0-1.928.269-2.734.732C14.32 13.302 12.7 13 11 13c-3.427 0-6.535 1.226-8.539 2.255A4.5 4.5 0 0 0 0 19.268V22h14.257a5.5 5.5 0 1 0 4.243-9z"></path></svg>