<svg xmlns="http://www.w3.org/2000/svg" viewBox="0 0 48 48" id="crown"><circle cx="24" cy="24" r="24" fill="#f9a21b"></circle><path fill="#fff" d="M36.5 19c-.827 0-1.5.673-1.5 1.5 0 .23.057.447.15.643l-1.324 1.324-1.95-4.255A1.496 1.496 0 0 0 31 15.5c-.827 0-1.5.673-1.5 1.5 0 .45.204.851.52 1.126l-1.869 2.989-2.98-5.502c.5-.364.829-.95.829-1.613 0-1.103-.897-2-2-2s-2 .897-2 2c0 .664.329 1.25.828 1.613l-2.98 5.502-1.868-2.989A1.49 1.49 0 0 0 18.5 17c0-.827-.673-1.5-1.5-1.5s-1.5.673-1.5 1.5c0 .5.248.94.624 1.212l-1.95 4.255-1.324-1.324c.093-.196.15-.412.15-.643 0-.827-.673-1.5-1.5-1.5s-1.5.673-1.5 1.5c0 .778.597 1.412 1.356 1.485l2.623 10.495-.954 2.862a.497.497 0 0 0 .07.45c.093.13.244.208.405.208h21a.498.498 0 0 0 .405-.208.497.497 0 0 0 .07-.45l-.954-2.862 2.623-10.495A1.497 1.497 0 0 0 38 20.5c0-.827-.673-1.5-1.5-1.5zM31 16.5a.497.497 0 1 1 .166.966c-.02.002-.038-.002-.058.003A3.51 3.51 0 0 0 31 17.5a.88.88 0 0 1-.137-.035c-.01-.003-.02.003-.03.001A.497.497 0 0 1 31 16.5zm-.067 2.052 2.14 4.669-2.453 2.452-1.922-3.548 2.235-3.573zM24 13a1 1 0 1 1-.001 2.001A1 1 0 0 1 24 13zm-7 3.5a.494.494 0 1 1 .132.973c-.007.002-.015-.002-.022 0l-.048.014c-.021.003-.04.013-.062.013-.038 0-.072-.014-.108-.022v-.01c-.02-.004-.039 0-.058-.002A.497.497 0 0 1 17 16.5zm.067 2.052 2.235 3.573-1.922 3.548-2.452-2.452 2.14-4.67zm-5.216 2.303a.521.521 0 0 1-.235.113c-.012.003-.02.011-.031.015-.029.005-.055.017-.085.017a.501.501 0 0 1 0-1 .501.501 0 0 1 .351.855zM14.193 35l.667-2h18.28l.667 2H14.193zm18.916-3H14.891l-2.468-9.87 4.723 4.724a.495.495 0 0 0 .182.112c.02.007.04.007.06.012.037.009.073.022.112.022a.501.501 0 0 0 .44-.262l2.38-4.392v-.002l3.445-6.36c.027.004.054-.002.08 0 .052.004.102.016.155.016s.103-.012.154-.016c.027-.002.054.004.081 0l3.445 6.36v.002l2.38 4.392a.501.501 0 0 0 .44.262c.038 0 .073-.013.11-.022.02-.004.042-.005.062-.012a.495.495 0 0 0 .182-.112l4.723-4.724L33.11 32zM36.5 21c-.03 0-.056-.012-.085-.017-.011-.004-.02-.012-.031-.015a.521.521 0 0 1-.235-.113A.498.498 0 0 1 36.5 20a.501.501 0 0 1 0 1zM24 25c-1.379 0-2.5 1.121-2.5 2.5S22.621 30 24 30s2.5-1.121 2.5-2.5S25.379 25 24 25zm0 4c-.827 0-1.5-.673-1.5-1.5S23.173 26 24 26s1.5.673 1.5 1.5S24.827 29 24 29z"></path></svg>