<svg xmlns="http://www.w3.org/2000/svg" xmlns:xlink="http://www.w3.org/1999/xlink" width="48" height="48" id="password"><defs><linearGradient id="a"><stop offset="0" stop-color="#000092"></stop><stop offset="1" stop-color="#ff00f3"></stop></linearGradient><linearGradient id="b" x1="3.5" x2="44.5" y1="1028.271" y2="1028.271" gradientUnits="userSpaceOnUse" xlink:href="#a"></linearGradient></defs><g fill="url(#b)" color="#000" font-family="sans-serif" font-weight="400" transform="translate(0 -1004.362)"><path style="line-height:normal;text-indent:0;text-align:start;text-decoration-line:none;text-decoration-style:solid;text-decoration-color:#000;text-transform:none;block-progression:tb;white-space:normal;isolation:auto;mix-blend-mode:normal;solid-color:#000;solid-opacity:1" d="M33.693 1037.564a2.59 2.59 0 0 0 2.58-2.58v-13.423a2.59 2.59 0 0 0-2.58-2.58H14.307a2.59 2.59 0 0 0-2.58 2.58v13.423a2.59 2.59 0 0 0 2.58 2.58h19.386zm0-1.5H14.307c-.612 0-1.08-.468-1.08-1.08v-13.423c0-.612.468-1.08 1.08-1.08h19.386c.612 0 1.08.468 1.08 1.08v13.423c0 .612-.468 1.08-1.08 1.08z" overflow="visible"></path><path style="line-height:normal;text-indent:0;text-align:start;text-decoration-line:none;text-decoration-style:solid;text-decoration-color:#000;text-transform:none;block-progression:tb;white-space:normal;isolation:auto;mix-blend-mode:normal;solid-color:#000;solid-opacity:1" d="M23.627 1005.785a.75.75 0 0 0-.252.05c-4.49.135-8.121 3.658-8.121 8.07v5.49a.75.75 0 1 0 1.5 0v-5.49c0-3.666 3.039-6.62 6.873-6.62h.746c3.834 0 6.873 2.954 6.873 6.62v5.67a.75.75 0 1 0 1.5 0v-5.67c0-4.499-3.76-8.12-8.373-8.12h-.746zm.117 2.899c-1.648 0-3.046.66-3.984 1.726-.938 1.067-1.426 2.51-1.426 4.063v5.062a.75.75 0 1 0 1.5 0v-5.062c0-1.24.389-2.316 1.053-3.07.664-.756 1.595-1.22 2.857-1.22h.512c1.262 0 2.183.462 2.84 1.215.656.754 1.039 1.832 1.039 3.075v5.088a.75.75 0 1 0 1.5 0v-5.088c0-1.55-.478-2.99-1.408-4.059-.93-1.068-2.323-1.73-3.971-1.73h-.512zM24 1024.56c-1.724 0-3.15 1.39-3.15 3.105 0 .946.51 1.76 1.236 2.342v3.447c0 1.043.873 1.895 1.914 1.895s1.914-.852 1.914-1.895v-3.447c.727-.582 1.235-1.397 1.236-2.342 0-1.714-1.426-3.106-3.15-3.106zm0 1.5c.928 0 1.65.717 1.65 1.605 0 .579-.317 1.112-.843 1.399a.75.75 0 0 0-.393.66v3.732c0 .224-.164.395-.414.395-.25 0-.414-.171-.414-.395v-3.73a.75.75 0 0 0-.393-.66 1.593 1.593 0 0 1-.843-1.401c0-.888.722-1.605 1.65-1.605zm-17.404 13.964a3.105 3.105 0 0 0-3.096 3.096v4.537a3.107 3.107 0 0 0 3.096 3.098h34.808a3.107 3.107 0 0 0 3.096-3.098v-4.537a3.105 3.105 0 0 0-3.096-3.096H6.596zm0 1.5h34.808c.898 0 1.596.699 1.596 1.596v4.537c0 .898-.698 1.598-1.596 1.598H6.596c-.898 0-1.596-.7-1.596-1.598v-4.537c0-.897.698-1.596 1.596-1.596z" overflow="visible"></path><path fill-rule="evenodd" style="line-height:normal;text-indent:0;text-align:start;text-decoration-line:none;text-decoration-style:solid;text-decoration-color:#000;text-transform:none;block-progression:tb;white-space:normal;isolation:auto;mix-blend-mode:normal;solid-color:#000;solid-opacity:1" d="M38.578 1045.105a.75.75 0 0 0-.51.239l-1.552 1.63a.75.75 0 0 0 1.088 1.034l1.55-1.63a.75.75 0 0 0-.576-1.272z" overflow="visible"></path><path fill-rule="evenodd" style="line-height:normal;text-indent:0;text-align:start;text-decoration-line:none;text-decoration-style:solid;text-decoration-color:#000;text-transform:none;block-progression:tb;white-space:normal;isolation:auto;mix-blend-mode:normal;solid-color:#000;solid-opacity:1" d="M40.633 1044.012a.75.75 0 0 0-.336.092l-1.957 1.04a.75.75 0 0 0 .705 1.325l1.957-1.041a.75.75 0 0 0-.37-1.416z" overflow="visible"></path><path fill-rule="evenodd" style="line-height:normal;text-indent:0;text-align:start;text-decoration-line:none;text-decoration-style:solid;text-decoration-color:#000;text-transform:none;block-progression:tb;white-space:normal;isolation:auto;mix-blend-mode:normal;solid-color:#000;solid-opacity:1" d="M38.621 1045.103a.75.75 0 0 0-.555 1.276l1.553 1.629a.75.75 0 1 0 1.086-1.033l-1.55-1.631a.75.75 0 0 0-.534-.24z" overflow="visible"></path><path fill-rule="evenodd" style="line-height:normal;text-indent:0;text-align:start;text-decoration-line:none;text-decoration-style:solid;text-decoration-color:#000;text-transform:none;block-progression:tb;white-space:normal;isolation:auto;mix-blend-mode:normal;solid-color:#000;solid-opacity:1" d="M36.566 1044.012a.75.75 0 0 0-.345 1.416l1.955 1.04a.75.75 0 0 0 .705-1.324l-1.955-1.04a.75.75 0 0 0-.36-.093z" overflow="visible"></path><path fill-rule="evenodd" style="line-height:normal;text-indent:0;text-align:start;text-decoration-line:none;text-decoration-style:solid;text-decoration-color:#000;text-transform:none;block-progression:tb;white-space:normal;isolation:auto;mix-blend-mode:normal;solid-color:#000;solid-opacity:1" d="M38.615 1042.531a.75.75 0 0 0-.74.76l-.004 2.303a.75.75 0 1 0 1.5 0l.004-2.303a.75.75 0 0 0-.76-.762zm-7.176 2.574a.75.75 0 0 0-.51.239l-1.55 1.63a.75.75 0 1 0 1.086 1.034l1.55-1.63a.75.75 0 0 0-.576-1.272z" overflow="visible"></path><path fill-rule="evenodd" style="line-height:normal;text-indent:0;text-align:start;text-decoration-line:none;text-decoration-style:solid;text-decoration-color:#000;text-transform:none;block-progression:tb;white-space:normal;isolation:auto;mix-blend-mode:normal;solid-color:#000;solid-opacity:1" d="M33.494 1044.012a.75.75 0 0 0-.336.092l-1.957 1.04a.75.75 0 0 0 .705 1.325l1.957-1.041a.75.75 0 0 0-.369-1.416z" overflow="visible"></path><path fill-rule="evenodd" style="line-height:normal;text-indent:0;text-align:start;text-decoration-line:none;text-decoration-style:solid;text-decoration-color:#000;text-transform:none;block-progression:tb;white-space:normal;isolation:auto;mix-blend-mode:normal;solid-color:#000;solid-opacity:1" d="M31.482 1045.103a.75.75 0 0 0-.554 1.276l1.552 1.629a.75.75 0 1 0 1.086-1.033l-1.55-1.631a.75.75 0 0 0-.534-.24z" overflow="visible"></path><path fill-rule="evenodd" style="line-height:normal;text-indent:0;text-align:start;text-decoration-line:none;text-decoration-style:solid;text-decoration-color:#000;text-transform:none;block-progression:tb;white-space:normal;isolation:auto;mix-blend-mode:normal;solid-color:#000;solid-opacity:1" d="M29.428 1044.012a.75.75 0 0 0-.346 1.416l1.955 1.04a.75.75 0 0 0 .705-1.324l-1.955-1.04a.75.75 0 0 0-.36-.093z" overflow="visible"></path><path fill-rule="evenodd" style="line-height:normal;text-indent:0;text-align:start;text-decoration-line:none;text-decoration-style:solid;text-decoration-color:#000;text-transform:none;block-progression:tb;white-space:normal;isolation:auto;mix-blend-mode:normal;solid-color:#000;solid-opacity:1" d="M31.477 1042.531a.75.75 0 0 0-.74.76l-.005 2.303a.75.75 0 1 0 1.5 0l.004-2.303a.75.75 0 0 0-.76-.762zm-7.176 2.574a.75.75 0 0 0-.51.239l-1.55 1.63a.75.75 0 1 0 1.085 1.034l1.551-1.63a.75.75 0 0 0-.576-1.272z" overflow="visible"></path><path fill-rule="evenodd" style="line-height:normal;text-indent:0;text-align:start;text-decoration-line:none;text-decoration-style:solid;text-decoration-color:#000;text-transform:none;block-progression:tb;white-space:normal;isolation:auto;mix-blend-mode:normal;solid-color:#000;solid-opacity:1" d="M26.355 1044.012a.75.75 0 0 0-.335.092l-1.957 1.04a.75.75 0 0 0 .705 1.325l1.957-1.041a.75.75 0 0 0-.37-1.416z" overflow="visible"></path><path fill-rule="evenodd" style="line-height:normal;text-indent:0;text-align:start;text-decoration-line:none;text-decoration-style:solid;text-decoration-color:#000;text-transform:none;block-progression:tb;white-space:normal;isolation:auto;mix-blend-mode:normal;solid-color:#000;solid-opacity:1" d="M24.344 1045.103a.75.75 0 0 0-.555 1.276l1.553 1.629a.75.75 0 1 0 1.086-1.033l-1.551-1.631a.75.75 0 0 0-.533-.24z" overflow="visible"></path><path fill-rule="evenodd" style="line-height:normal;text-indent:0;text-align:start;text-decoration-line:none;text-decoration-style:solid;text-decoration-color:#000;text-transform:none;block-progression:tb;white-space:normal;isolation:auto;mix-blend-mode:normal;solid-color:#000;solid-opacity:1" d="M22.29 1044.012a.75.75 0 0 0-.347 1.416l1.955 1.04a.75.75 0 0 0 .706-1.324l-1.956-1.04a.75.75 0 0 0-.359-.093z" overflow="visible"></path><path fill-rule="evenodd" style="line-height:normal;text-indent:0;text-align:start;text-decoration-line:none;text-decoration-style:solid;text-decoration-color:#000;text-transform:none;block-progression:tb;white-space:normal;isolation:auto;mix-blend-mode:normal;solid-color:#000;solid-opacity:1" d="M24.338 1042.531a.75.75 0 0 0-.74.76l-.004 2.303a.75.75 0 1 0 1.5 0l.004-2.303a.75.75 0 0 0-.76-.762zm-7.176 2.574a.75.75 0 0 0-.51.239l-1.55 1.63a.75.75 0 1 0 1.085 1.034l1.551-1.63a.75.75 0 0 0-.576-1.272z" overflow="visible"></path><path fill-rule="evenodd" style="line-height:normal;text-indent:0;text-align:start;text-decoration-line:none;text-decoration-style:solid;text-decoration-color:#000;text-transform:none;block-progression:tb;white-space:normal;isolation:auto;mix-blend-mode:normal;solid-color:#000;solid-opacity:1" d="M19.217 1044.012a.75.75 0 0 0-.336.092l-1.957 1.04a.75.75 0 0 0 .705 1.325l1.957-1.041a.75.75 0 0 0-.37-1.416z" overflow="visible"></path><path fill-rule="evenodd" style="line-height:normal;text-indent:0;text-align:start;text-decoration-line:none;text-decoration-style:solid;text-decoration-color:#000;text-transform:none;block-progression:tb;white-space:normal;isolation:auto;mix-blend-mode:normal;solid-color:#000;solid-opacity:1" d="M17.205 1045.103a.75.75 0 0 0-.553 1.276l1.551 1.629a.75.75 0 1 0 1.086-1.033l-1.55-1.631a.75.75 0 0 0-.534-.24z" overflow="visible"></path><path fill-rule="evenodd" style="line-height:normal;text-indent:0;text-align:start;text-decoration-line:none;text-decoration-style:solid;text-decoration-color:#000;text-transform:none;block-progression:tb;white-space:normal;isolation:auto;mix-blend-mode:normal;solid-color:#000;solid-opacity:1" d="M15.15 1044.012a.75.75 0 0 0-.345 1.416l1.955 1.04a.75.75 0 0 0 .705-1.324l-1.955-1.04a.75.75 0 0 0-.36-.093z" overflow="visible"></path><path fill-rule="evenodd" style="line-height:normal;text-indent:0;text-align:start;text-decoration-line:none;text-decoration-style:solid;text-decoration-color:#000;text-transform:none;block-progression:tb;white-space:normal;isolation:auto;mix-blend-mode:normal;solid-color:#000;solid-opacity:1" d="M17.2 1042.531a.75.75 0 0 0-.741.76l-.004 2.303a.75.75 0 1 0 1.5 0l.004-2.303a.75.75 0 0 0-.76-.762z" overflow="visible"></path></g></svg>