<svg xmlns="http://www.w3.org/2000/svg" viewBox="0 0 24 24" id="add-money"><path fill="#039BE5" d="M20 18H2a2 2 0 0 1-2-2V4a2 2 0 0 1 2-2h18a2 2 0 0 1 2 2v12a2 2 0 0 1-2 2z"></path><path fill="#FFF" d="M20 2H2a2 2 0 0 0-2 2v.25a2 2 0 0 1 2-2h18a2 2 0 0 1 2 2V4a2 2 0 0 0-2-2z" opacity=".2"></path><path d="M20 17.75H2a2 2 0 0 1-2-2V16a2 2 0 0 0 2 2h18a2 2 0 0 0 2-2v-.25a2 2 0 0 1-2 2z" opacity=".1"></path><path fill="#1C2B39" d="M0 5h22v4H0z"></path><path fill="#FFF" d="M0 5h22v2H0z" opacity=".05"></path><circle cx="18.5" cy="16.5" r="5.5" fill="#69B342"></circle><path d="M18.5 21.75a5.622 5.622 0 0 1-5.263-3.654 5.5 5.5 0 0 0 10.526 0A5.622 5.622 0 0 1 18.5 21.75z" opacity=".1"></path><path fill="#FFF" d="M18.5 11.25a5.622 5.622 0 0 1 5.263 3.654 5.5 5.5 0 0 0-10.526 0A5.622 5.622 0 0 1 18.5 11.25z" opacity=".2"></path><path fill="#FFF" d="M21 16h-2v-2h-1v2h-2v1h2v2h1v-2h2z"></path><linearGradient id="a" x1="17.5" x2="22.387" y1="15.5" y2="20.387" gradientUnits="userSpaceOnUse"><stop offset="0" stop-opacity=".1"></stop><stop offset="1" stop-opacity="0"></stop></linearGradient><path fill="url(#a)" d="m16 17 2 2v-2h-2zm3-1h2l-2-2v2zm2 0v1h-2v2h-1l2.587 2.587a5.515 5.515 0 0 0 3-3L21 16z"></path><linearGradient id="b" x1="-.504" x2="24.636" y1="4.636" y2="16.359" gradientUnits="userSpaceOnUse"><stop offset="0" stop-color="#FFF" stop-opacity=".2"></stop><stop offset="1" stop-color="#FFF" stop-opacity="0"></stop></linearGradient><path fill="url(#b)" d="M22 12.257V4a2 2 0 0 0-2-2H2a2 2 0 0 0-2 2v12a2 2 0 0 0 2 2h11.212A5.498 5.498 0 1 0 22 12.257z"></path></svg>